# xmcd
#
# Track frame offsets:
#	150
#	19006
#	40028
#	57614
#	81203
#	108217
#	132223
#	151007
#
# Disc length: 2598 seconds
#
# Revision: 1
# Processed by: cddbd v1.5.1PL0 Copyright (c) Steve Scherf et al.
# Submitted via: audiograbber 1.83.01
#
DISCID=580a2408
DTITLE=Gogo Blues - Gogo Blues
DYEAR=2004
DGENRE=Blues
TTITLE0=I'm Gone
TTITLE1=City Life
TTITLE2=Give Me Your Love
TTITLE3=Crawlin' King Snake
TTITLE4=Chitlins Con Carne
TTITLE5=Beggin' You
TTITLE6=Feelin' So Free
TTITLE7=Helped By The Blues
EXTD=
EXTT0=
EXTT1=
EXTT2=
EXTT3=
EXTT4=
EXTT5=
EXTT6=
EXTT7=
PLAYORDER=
